<svg version="1.1" viewBox="0.0 0.0 960.0 540.0" fill="none" stroke="none" stroke-linecap="square" stroke-miterlimit="10" xmlns:xlink="http://www.w3.org/1999/xlink" xmlns="http://www.w3.org/2000/svg"><clipPath id="g12ee214b624_0_359.0"><path d="m0 0l960.0 0l0 540.0l-960.0 0l0 -540.0z" clip-rule="nonzero"/></clipPath><g clip-path="url(#g12ee214b624_0_359.0)"><path fill="#ffffff" d="m0 0l960.0 0l0 540.0l-960.0 0z" fill-rule="evenodd"/><path fill="#ffffff" d="m241.29659 31.181103l477.41736 0l0 476.2205l-477.41736 0z" fill-rule="evenodd"/><path stroke="#ffffff" stroke-width="1.0" stroke-linejoin="round" stroke-linecap="butt" d="m241.29659 31.181103l477.41736 0l0 476.2205l-477.41736 0z" fill-rule="evenodd"/><path fill="#434343" d="m241.29565 31.29583l36.723602 0l0 36.723587l-36.723602 0z" fill-rule="evenodd"/><path stroke="#434343" stroke-width="1.0" stroke-linejoin="round" stroke-linecap="butt" d="m241.29565 31.29583l36.723602 0l0 36.723587l-36.723602 0z" fill-rule="evenodd"/><path fill="#434343" d="m278.01926 31.29583l36.72357 0l0 36.723587l-36.72357 0z" fill-rule="evenodd"/><path stroke="#434343" stroke-width="1.0" stroke-linejoin="round" stroke-linecap="butt" d="m278.01926 31.29583l36.72357 0l0 36.723587l-36.72357 0z" fill-rule="evenodd"/><path fill="#999999" d="m314.74283 31.29583l36.723602 0l0 36.723587l-36.723602 0z" fill-rule="evenodd"/><path stroke="#999999" stroke-width="1.0" stroke-linejoin="round" stroke-linecap="butt" d="m314.74283 31.29583l36.723602 0l0 36.723587l-36.723602 0z" fill-rule="evenodd"/><path fill="#999999" d="m351.46643 31.29583l36.72357 0l0 36.723587l-36.72357 0z" fill-rule="evenodd"/><path stroke="#999999" stroke-width="1.0" stroke-linejoin="round" stroke-linecap="butt" d="m351.46643 31.29583l36.72357 0l0 36.723587l-36.72357 0z" fill-rule="evenodd"/><path fill="#9278ab" d="m388.19 31.29583l36.723602 0l0 36.723587l-36.723602 0z" fill-rule="evenodd"/><path stroke="#9278ab" stroke-width="1.0" stroke-linejoin="round" stroke-linecap="butt" d="m388.19 31.29583l36.723602 0l0 36.723587l-36.723602 0z" fill-rule="evenodd"/><path fill="#9278ab" d="m424.9136 31.29583l36.723602 0l0 36.723587l-36.723602 0z" fill-rule="evenodd"/><path stroke="#9278ab" stroke-width="1.0" stroke-linejoin="round" stroke-linecap="butt" d="m424.9136 31.29583l36.723602 0l0 36.723587l-36.723602 0z" fill-rule="evenodd"/><path fill="#9278ab" d="m461.6372 31.29583l36.72357 0l0 36.723587l-36.72357 0z" fill-rule="evenodd"/><path stroke="#9278ab" stroke-width="1.0" stroke-linejoin="round" stroke-linecap="butt" d="m461.6372 31.29583l36.72357 0l0 36.723587l-36.72357 0z" fill-rule="evenodd"/><path fill="#9278ab" d="m498.36078 31.29583l36.72357 0l0 36.723587l-36.72357 0z" fill-rule="evenodd"/><path stroke="#9278ab" stroke-width="1.0" stroke-linejoin="round" stroke-linecap="butt" d="m498.36078 31.29583l36.72357 0l0 36.723587l-36.72357 0z" fill-rule="evenodd"/><path fill="#9278ab" d="m535.08435 31.29583l36.723633 0l0 36.723587l-36.723633 0z" fill-rule="evenodd"/><path stroke="#9278ab" stroke-width="1.0" stroke-linejoin="round" stroke-linecap="butt" d="m535.08435 31.29583l36.723633 0l0 36.723587l-36.723633 0z" fill-rule="evenodd"/><path fill="#999999" d="m571.808 31.29583l36.72357 0l0 36.723587l-36.72357 0z" fill-rule="evenodd"/><path stroke="#999999" stroke-width="1.0" stroke-linejoin="round" stroke-linecap="butt" d="m571.808 31.29583l36.72357 0l0 36.723587l-36.72357 0z" fill-rule="evenodd"/><path fill="#999999" d="m608.53156 31.29583l36.72357 0l0 36.723587l-36.72357 0z" fill-rule="evenodd"/><path stroke="#999999" stroke-width="1.0" stroke-linejoin="round" stroke-linecap="butt" d="m608.53156 31.29583l36.72357 0l0 36.723587l-36.72357 0z" fill-rule="evenodd"/><path fill="#434343" d="m645.2551 31.29583l36.723633 0l0 36.723587l-36.723633 0z" fill-rule="evenodd"/><path stroke="#434343" stroke-width="1.0" stroke-linejoin="round" stroke-linecap="butt" d="m645.2551 31.29583l36.723633 0l0 36.723587l-36.723633 0z" fill-rule="evenodd"/><path fill="#434343" d="m241.29565 68.01942l36.723602 0l0 36.723595l-36.723602 0z" fill-rule="evenodd"/><path stroke="#434343" stroke-width="1.0" stroke-linejoin="round" stroke-linecap="butt" d="m241.29565 68.01942l36.723602 0l0 36.723595l-36.723602 0z" fill-rule="evenodd"/><path fill="#999999" d="m278.01926 68.01942l36.72357 0l0 36.723595l-36.72357 0z" fill-rule="evenodd"/><path stroke="#999999" stroke-width="1.0" stroke-linejoin="round" stroke-linecap="butt" d="m278.01926 68.01942l36.72357 0l0 36.723595l-36.72357 0z" fill-rule="evenodd"/><path fill="#9278ab" d="m314.74283 68.01942l36.723602 0l0 36.723595l-36.723602 0z" fill-rule="evenodd"/><path stroke="#9278ab" stroke-width="1.0" stroke-linejoin="round" stroke-linecap="butt" d="m314.74283 68.01942l36.723602 0l0 36.723595l-36.723602 0z" fill-rule="evenodd"/><path fill="#9278ab" d="m351.46643 68.01942l36.72357 0l0 36.723595l-36.72357 0z" fill-rule="evenodd"/><path stroke="#9278ab" stroke-width="1.0" stroke-linejoin="round" stroke-linecap="butt" d="m351.46643 68.01942l36.72357 0l0 36.723595l-36.72357 0z" fill-rule="evenodd"/><path fill="#84a1ba" d="m388.19 68.01942l36.723602 0l0 36.723595l-36.723602 0z" fill-rule="evenodd"/><path stroke="#84a1ba" stroke-width="1.0" stroke-linejoin="round" stroke-linecap="butt" d="m388.19 68.01942l36.723602 0l0 36.723595l-36.723602 0z" fill-rule="evenodd"/><path fill="#84a1ba" d="m424.9136 68.01942l36.723602 0l0 36.723595l-36.723602 0z" fill-rule="evenodd"/><path stroke="#84a1ba" stroke-width="1.0" stroke-linejoin="round" stroke-linecap="butt" d="m424.9136 68.01942l36.723602 0l0 36.723595l-36.723602 0z" fill-rule="evenodd"/><path fill="#84a1ba" d="m461.6372 68.01942l36.72357 0l0 36.723595l-36.72357 0z" fill-rule="evenodd"/><path stroke="#84a1ba" stroke-width="1.0" stroke-linejoin="round" stroke-linecap="butt" d="m461.6372 68.01942l36.72357 0l0 36.723595l-36.72357 0z" fill-rule="evenodd"/><path fill="#84a1ba" d="m498.36078 68.01942l36.72357 0l0 36.723595l-36.72357 0z" fill-rule="evenodd"/><path stroke="#84a1ba" stroke-width="1.0" stroke-linejoin="round" stroke-linecap="butt" d="m498.36078 68.01942l36.72357 0l0 36.723595l-36.72357 0z" fill-rule="evenodd"/><path fill="#84a1ba" d="m535.08435 68.01942l36.723633 0l0 36.723595l-36.723633 0z" fill-rule="evenodd"/><path stroke="#84a1ba" stroke-width="1.0" stroke-linejoin="round" stroke-linecap="butt" d="m535.08435 68.01942l36.723633 0l0 36.723595l-36.723633 0z" fill-rule="evenodd"/><path fill="#9278ab" d="m571.808 68.01942l36.72357 0l0 36.723595l-36.72357 0z" fill-rule="evenodd"/><path stroke="#9278ab" stroke-width="1.0" stroke-linejoin="round" stroke-linecap="butt" d="m571.808 68.01942l36.72357 0l0 36.723595l-36.72357 0z" fill-rule="evenodd"/><path fill="#9278ab" d="m608.53156 68.01942l36.72357 0l0 36.723595l-36.72357 0z" fill-rule="evenodd"/><path stroke="#9278ab" stroke-width="1.0" stroke-linejoin="round" stroke-linecap="butt" d="m608.53156 68.01942l36.72357 0l0 36.723595l-36.72357 0z" fill-rule="evenodd"/><path fill="#999999" d="m645.2551 68.01942l36.723633 0l0 36.723595l-36.723633 0z" fill-rule="evenodd"/><path stroke="#999999" stroke-width="1.0" stroke-linejoin="round" stroke-linecap="butt" d="m645.2551 68.01942l36.723633 0l0 36.723595l-36.723633 0z" fill-rule="evenodd"/><path fill="#999999" d="m241.29565 104.74301l36.723602 0l0 36.723587l-36.723602 0z" fill-rule="evenodd"/><path stroke="#999999" stroke-width="1.0" stroke-linejoin="round" stroke-linecap="butt" d="m241.29565 104.74301l36.723602 0l0 36.723587l-36.723602 0z" fill-rule="evenodd"/><path fill="#9278ab" d="m278.01926 104.74301l36.72357 0l0 36.723587l-36.72357 0z" fill-rule="evenodd"/><path stroke="#9278ab" stroke-width="1.0" stroke-linejoin="round" stroke-linecap="butt" d="m278.01926 104.74301l36.72357 0l0 36.723587l-36.72357 0z" fill-rule="evenodd"/><path fill="#9278ab" d="m314.74283 104.74301l36.723602 0l0 36.723587l-36.723602 0z" fill-rule="evenodd"/><path stroke="#9278ab" stroke-width="1.0" stroke-linejoin="round" stroke-linecap="butt" d="m314.74283 104.74301l36.723602 0l0 36.723587l-36.723602 0z" fill-rule="evenodd"/><path fill="#84a1ba" d="m351.46643 104.74301l36.72357 0l0 36.723587l-36.72357 0z" fill-rule="evenodd"/><path stroke="#84a1ba" stroke-width="1.0" stroke-linejoin="round" stroke-linecap="butt" d="m351.46643 104.74301l36.72357 0l0 36.723587l-36.72357 0z" fill-rule="evenodd"/><path fill="#84a1ba" d="m388.19 104.74301l36.723602 0l0 36.723587l-36.723602 0z" fill-rule="evenodd"/><path stroke="#84a1ba" stroke-width="1.0" stroke-linejoin="round" stroke-linecap="butt" d="m388.19 104.74301l36.723602 0l0 36.723587l-36.723602 0z" fill-rule="evenodd"/><path fill="#b4a7d6" d="m424.9136 104.74301l36.723602 0l0 36.723587l-36.723602 0z" fill-rule="evenodd"/><path stroke="#b4a7d6" stroke-width="1.0" stroke-linejoin="round" stroke-linecap="butt" d="m424.9136 104.74301l36.723602 0l0 36.723587l-36.723602 0z" fill-rule="evenodd"/><path fill="#b4a7d6" d="m461.6372 104.74301l36.72357 0l0 36.723587l-36.72357 0z" fill-rule="evenodd"/><path stroke="#b4a7d6" stroke-width="1.0" stroke-linejoin="round" stroke-linecap="butt" d="m461.6372 104.74301l36.72357 0l0 36.723587l-36.72357 0z" fill-rule="evenodd"/><path fill="#b4a7d6" d="m498.36078 104.74301l36.72357 0l0 36.723587l-36.72357 0z" fill-rule="evenodd"/><path stroke="#b4a7d6" stroke-width="1.0" stroke-linejoin="round" stroke-linecap="butt" d="m498.36078 104.74301l36.72357 0l0 36.723587l-36.72357 0z" fill-rule="evenodd"/><path fill="#84a1ba" d="m535.08435 104.74301l36.723633 0l0 36.723587l-36.723633 0z" fill-rule="evenodd"/><path stroke="#84a1ba" stroke-width="1.0" stroke-linejoin="round" stroke-linecap="butt" d="m535.08435 104.74301l36.723633 0l0 36.723587l-36.723633 0z" fill-rule="evenodd"/><path fill="#84a1ba" d="m571.808 104.74301l36.72357 0l0 36.723587l-36.72357 0z" fill-rule="evenodd"/><path stroke="#84a1ba" stroke-width="1.0" stroke-linejoin="round" stroke-linecap="butt" d="m571.808 104.74301l36.72357 0l0 36.723587l-36.72357 0z" fill-rule="evenodd"/><path fill="#9278ab" d="m608.53156 104.74301l36.72357 0l0 36.723587l-36.72357 0z" fill-rule="evenodd"/><path stroke="#9278ab" stroke-width="1.0" stroke-linejoin="round" stroke-linecap="butt" d="m608.53156 104.74301l36.72357 0l0 36.723587l-36.72357 0z" fill-rule="evenodd"/><path fill="#9278ab" d="m645.2551 104.74301l36.723633 0l0 36.723587l-36.723633 0z" fill-rule="evenodd"/><path stroke="#9278ab" stroke-width="1.0" stroke-linejoin="round" stroke-linecap="butt" d="m645.2551 104.74301l36.723633 0l0 36.723587l-36.723633 0z" fill-rule="evenodd"/><path fill="#999999" d="m241.29565 141.4666l36.723602 0l0 36.723587l-36.723602 0z" fill-rule="evenodd"/><path stroke="#999999" stroke-width="1.0" stroke-linejoin="round" stroke-linecap="butt" d="m241.29565 141.4666l36.723602 0l0 36.723587l-36.723602 0z" fill-rule="evenodd"/><path fill="#9278ab" d="m278.01926 141.4666l36.72357 0l0 36.723587l-36.72357 0z" fill-rule="evenodd"/><path stroke="#9278ab" stroke-width="1.0" stroke-linejoin="round" stroke-linecap="butt" d="m278.01926 141.4666l36.72357 0l0 36.723587l-36.72357 0z" fill-rule="evenodd"/><path fill="#84a1ba" d="m314.74283 141.4666l36.723602 0l0 36.723587l-36.723602 0z" fill-rule="evenodd"/><path stroke="#84a1ba" stroke-width="1.0" stroke-linejoin="round" stroke-linecap="butt" d="m314.74283 141.4666l36.723602 0l0 36.723587l-36.723602 0z" fill-rule="evenodd"/><path fill="#b997d9" d="m351.46643 141.4666l36.72357 0l0 36.723587l-36.72357 0z" fill-rule="evenodd"/><path stroke="#b997d9" stroke-width="1.0" stroke-linejoin="round" stroke-linecap="butt" d="m351.46643 141.4666l36.72357 0l0 36.723587l-36.72357 0z" fill-rule="evenodd"/><path fill="#b4a7d6" d="m388.19 141.4666l36.723602 0l0 36.723587l-36.723602 0z" fill-rule="evenodd"/><path stroke="#b4a7d6" stroke-width="1.0" stroke-linejoin="round" stroke-linecap="butt" d="m388.19 141.4666l36.723602 0l0 36.723587l-36.723602 0z" fill-rule="evenodd"/><path fill="#fce9ff" d="m424.9136 141.4666l36.723602 0l0 36.723587l-36.723602 0z" fill-rule="evenodd"/><path stroke="#fce9ff" stroke-width="1.0" stroke-linejoin="round" stroke-linecap="butt" d="m424.9136 141.4666l36.723602 0l0 36.723587l-36.723602 0z" fill-rule="evenodd"/><path fill="#fdedff" d="m461.6372 141.4666l36.72357 0l0 36.723587l-36.72357 0z" fill-rule="evenodd"/><path stroke="#fce9ff" stroke-width="1.0" stroke-linejoin="round" stroke-linecap="butt" d="m461.6372 141.4666l36.72357 0l0 36.723587l-36.72357 0z" fill-rule="evenodd"/><path fill="#fce9ff" d="m498.36078 141.4666l36.72357 0l0 36.723587l-36.72357 0z" fill-rule="evenodd"/><path stroke="#fce9ff" stroke-width="1.0" stroke-linejoin="round" stroke-linecap="butt" d="m498.36078 141.4666l36.72357 0l0 36.723587l-36.72357 0z" fill-rule="evenodd"/><path fill="#b4a7d6" d="m535.08435 141.4666l36.723633 0l0 36.723587l-36.723633 0z" fill-rule="evenodd"/><path stroke="#b4a7d6" stroke-width="1.0" stroke-linejoin="round" stroke-linecap="butt" d="m535.08435 141.4666l36.723633 0l0 36.723587l-36.723633 0z" fill-rule="evenodd"/><path fill="#b997d9" d="m571.808 141.4666l36.72357 0l0 36.723587l-36.72357 0z" fill-rule="evenodd"/><path stroke="#b997d9" stroke-width="1.0" stroke-linejoin="round" stroke-linecap="butt" d="m571.808 141.4666l36.72357 0l0 36.723587l-36.72357 0z" fill-rule="evenodd"/><path fill="#84a1ba" d="m608.53156 141.4666l36.72357 0l0 36.723587l-36.72357 0z" fill-rule="evenodd"/><path stroke="#84a1ba" stroke-width="1.0" stroke-linejoin="round" stroke-linecap="butt" d="m608.53156 141.4666l36.72357 0l0 36.723587l-36.72357 0z" fill-rule="evenodd"/><path fill="#9278ab" d="m645.2551 141.4666l36.723633 0l0 36.723587l-36.723633 0z" fill-rule="evenodd"/><path stroke="#9278ab" stroke-width="1.0" stroke-linejoin="round" stroke-linecap="butt" d="m645.2551 141.4666l36.723633 0l0 36.723587l-36.723633 0z" fill-rule="evenodd"/><path fill="#9278ab" d="m241.29565 178.19019l36.723602 0l0 36.723602l-36.723602 0z" fill-rule="evenodd"/><path stroke="#9278ab" stroke-width="1.0" stroke-linejoin="round" stroke-linecap="butt" d="m241.29565 178.19019l36.723602 0l0 36.723602l-36.723602 0z" fill-rule="evenodd"/><path fill="#84a1ba" d="m278.01926 178.19019l36.72357 0l0 36.723602l-36.72357 0z" fill-rule="evenodd"/><path stroke="#84a1ba" stroke-width="1.0" stroke-linejoin="round" stroke-linecap="butt" d="m278.01926 178.19019l36.72357 0l0 36.723602l-36.72357 0z" fill-rule="evenodd"/><path fill="#84a1ba" d="m314.74283 178.19019l36.723602 0l0 36.723602l-36.723602 0z" fill-rule="evenodd"/><path stroke="#84a1ba" stroke-width="1.0" stroke-linejoin="round" stroke-linecap="butt" d="m314.74283 178.19019l36.723602 0l0 36.723602l-36.723602 0z" fill-rule="evenodd"/><path fill="#b4a7d6" d="m351.46643 178.19019l36.72357 0l0 36.723602l-36.72357 0z" fill-rule="evenodd"/><path stroke="#b4a7d6" stroke-width="1.0" stroke-linejoin="round" stroke-linecap="butt" d="m351.46643 178.19019l36.72357 0l0 36.723602l-36.72357 0z" fill-rule="evenodd"/><path fill="#fce9ff" d="m388.19 178.19019l36.723602 0l0 36.723602l-36.723602 0z" fill-rule="evenodd"/><path stroke="#fce9ff" stroke-width="1.0" stroke-linejoin="round" stroke-linecap="butt" d="m388.19 178.19019l36.723602 0l0 36.723602l-36.723602 0z" fill-rule="evenodd"/><path fill="#cfe2f3" d="m424.9136 178.19019l36.723602 0l0 36.723602l-36.723602 0z" fill-rule="evenodd"/><path stroke="#cfe2f3" stroke-width="1.0" stroke-linejoin="round" stroke-linecap="butt" d="m424.9136 178.19019l36.723602 0l0 36.723602l-36.723602 0z" fill-rule="evenodd"/><path fill="#e1f1ff" d="m461.6372 178.19019l36.72357 0l0 36.723602l-36.72357 0z" fill-rule="evenodd"/><path stroke="#e1f1ff" stroke-width="1.0" stroke-linejoin="round" stroke-linecap="butt" d="m461.6372 178.19019l36.72357 0l0 36.723602l-36.72357 0z" fill-rule="evenodd"/><path fill="#cfe2f3" d="m498.36078 178.19019l36.72357 0l0 36.723602l-36.72357 0z" fill-rule="evenodd"/><path stroke="#cfe2f3" stroke-width="1.0" stroke-linejoin="round" stroke-linecap="butt" d="m498.36078 178.19019l36.72357 0l0 36.723602l-36.72357 0z" fill-rule="evenodd"/><path fill="#fce9ff" d="m535.08435 178.19019l36.723633 0l0 36.723602l-36.723633 0z" fill-rule="evenodd"/><path stroke="#fce9ff" stroke-width="1.0" stroke-linejoin="round" stroke-linecap="butt" d="m535.08435 178.19019l36.723633 0l0 36.723602l-36.723633 0z" fill-rule="evenodd"/><path fill="#b4a7d6" d="m571.808 178.19019l36.72357 0l0 36.723602l-36.72357 0z" fill-rule="evenodd"/><path stroke="#b997d9" stroke-width="1.0" stroke-linejoin="round" stroke-linecap="butt" d="m571.808 178.19019l36.72357 0l0 36.723602l-36.72357 0z" fill-rule="evenodd"/><path fill="#84a1ba" d="m608.53156 178.19019l36.72357 0l0 36.723602l-36.72357 0z" fill-rule="evenodd"/><path stroke="#84a1ba" stroke-width="1.0" stroke-linejoin="round" stroke-linecap="butt" d="m608.53156 178.19019l36.72357 0l0 36.723602l-36.72357 0z" fill-rule="evenodd"/><path fill="#84a1ba" d="m645.2551 178.19019l36.723633 0l0 36.723602l-36.723633 0z" fill-rule="evenodd"/><path stroke="#84a1ba" stroke-width="1.0" stroke-linejoin="round" stroke-linecap="butt" d="m645.2551 178.19019l36.723633 0l0 36.723602l-36.723633 0z" fill-rule="evenodd"/><path fill="#9278ab" d="m241.29565 214.91379l36.723602 0l0 36.723587l-36.723602 0z" fill-rule="evenodd"/><path stroke="#9278ab" stroke-width="1.0" stroke-linejoin="round" stroke-linecap="butt" d="m241.29565 214.91379l36.723602 0l0 36.723587l-36.723602 0z" fill-rule="evenodd"/><path fill="#84a1ba" d="m278.01926 214.91379l36.72357 0l0 36.723587l-36.72357 0z" fill-rule="evenodd"/><path stroke="#84a1ba" stroke-width="1.0" stroke-linejoin="round" stroke-linecap="butt" d="m278.01926 214.91379l36.72357 0l0 36.723587l-36.72357 0z" fill-rule="evenodd"/><path fill="#b4a7d6" d="m314.74283 214.91379l36.723602 0l0 36.723587l-36.723602 0z" fill-rule="evenodd"/><path stroke="#b4a7d6" stroke-width="1.0" stroke-linejoin="round" stroke-linecap="butt" d="m314.74283 214.91379l36.723602 0l0 36.723587l-36.723602 0z" fill-rule="evenodd"/><path fill="#fce9ff" d="m351.46643 214.91379l36.72357 0l0 36.723587l-36.72357 0z" fill-rule="evenodd"/><path stroke="#fce9ff" stroke-width="1.0" stroke-linejoin="round" stroke-linecap="butt" d="m351.46643 214.91379l36.72357 0l0 36.723587l-36.72357 0z" fill-rule="evenodd"/><path fill="#cfe2f3" d="m388.19 214.91379l36.723602 0l0 36.723587l-36.723602 0z" fill-rule="evenodd"/><path stroke="#cfe2f3" stroke-width="1.0" stroke-linejoin="round" stroke-linecap="butt" d="m388.19 214.91379l36.723602 0l0 36.723587l-36.723602 0z" fill-rule="evenodd"/><path fill="#f0fefc" d="m424.9136 214.91379l36.723602 0l0 36.723587l-36.723602 0z" fill-rule="evenodd"/><path stroke="#f0fefc" stroke-width="1.0" stroke-linejoin="round" stroke-linecap="butt" d="m424.9136 214.91379l36.723602 0l0 36.723587l-36.723602 0z" fill-rule="evenodd"/><path fill="#fbfffe" d="m461.6372 214.91379l36.72357 0l0 36.723587l-36.72357 0z" fill-rule="evenodd"/><path stroke="#fbfffe" stroke-width="1.0" stroke-linejoin="round" stroke-linecap="butt" d="m461.6372 214.91379l36.72357 0l0 36.723587l-36.72357 0z" fill-rule="evenodd"/><path fill="#f0fefc" d="m498.36078 214.91379l36.72357 0l0 36.723587l-36.72357 0z" fill-rule="evenodd"/><path stroke="#f0fefc" stroke-width="1.0" stroke-linejoin="round" stroke-linecap="butt" d="m498.36078 214.91379l36.72357 0l0 36.723587l-36.72357 0z" fill-rule="evenodd"/><path fill="#cfe2f3" d="m535.08435 214.91379l36.723633 0l0 36.723587l-36.723633 0z" fill-rule="evenodd"/><path stroke="#cfe2f3" stroke-width="1.0" stroke-linejoin="round" stroke-linecap="butt" d="m535.08435 214.91379l36.723633 0l0 36.723587l-36.723633 0z" fill-rule="evenodd"/><path fill="#fce9ff" d="m571.808 214.91379l36.72357 0l0 36.723587l-36.72357 0z" fill-rule="evenodd"/><path stroke="#fce9ff" stroke-width="1.0" stroke-linejoin="round" stroke-linecap="butt" d="m571.808 214.91379l36.72357 0l0 36.723587l-36.72357 0z" fill-rule="evenodd"/><path fill="#b4a7d6" d="m608.53156 214.91379l36.72357 0l0 36.723587l-36.72357 0z" fill-rule="evenodd"/><path stroke="#b4a7d6" stroke-width="1.0" stroke-linejoin="round" stroke-linecap="butt" d="m608.53156 214.91379l36.72357 0l0 36.723587l-36.72357 0z" fill-rule="evenodd"/><path fill="#84a1ba" d="m645.2551 214.91379l36.723633 0l0 36.723587l-36.723633 0z" fill-rule="evenodd"/><path stroke="#84a1ba" stroke-width="1.0" stroke-linejoin="round" stroke-linecap="butt" d="m645.2551 214.91379l36.723633 0l0 36.723587l-36.723633 0z" fill-rule="evenodd"/><path fill="#9278ab" d="m241.29565 251.63737l36.723602 0l0 36.723587l-36.723602 0z" fill-rule="evenodd"/><path stroke="#9278ab" stroke-width="1.0" stroke-linejoin="round" stroke-linecap="butt" d="m241.29565 251.63737l36.723602 0l0 36.723587l-36.723602 0z" fill-rule="evenodd"/><path fill="#84a1ba" d="m278.01926 251.63737l36.72357 0l0 36.723587l-36.72357 0z" fill-rule="evenodd"/><path stroke="#84a1ba" stroke-width="1.0" stroke-linejoin="round" stroke-linecap="butt" d="m278.01926 251.63737l36.72357 0l0 36.723587l-36.72357 0z" fill-rule="evenodd"/><path fill="#b4a7d6" d="m314.74283 251.63737l36.723602 0l0 36.723587l-36.723602 0z" fill-rule="evenodd"/><path stroke="#b4a7d6" stroke-width="1.0" stroke-linejoin="round" stroke-linecap="butt" d="m314.74283 251.63737l36.723602 0l0 36.723587l-36.723602 0z" fill-rule="evenodd"/><path fill="#fdedff" d="m351.46643 251.63737l36.72357 0l0 36.723587l-36.72357 0z" fill-rule="evenodd"/><path stroke="#fce9ff" stroke-width="1.0" stroke-linejoin="round" stroke-linecap="butt" d="m351.46643 251.63737l36.72357 0l0 36.723587l-36.72357 0z" fill-rule="evenodd"/><path fill="#e1f1ff" d="m388.19 251.63737l36.723602 0l0 36.723587l-36.723602 0z" fill-rule="evenodd"/><path stroke="#e1f1ff" stroke-width="1.0" stroke-linejoin="round" stroke-linecap="butt" d="m388.19 251.63737l36.723602 0l0 36.723587l-36.723602 0z" fill-rule="evenodd"/><path fill="#fbfffe" d="m424.9136 251.63737l36.723602 0l0 36.723587l-36.723602 0z" fill-rule="evenodd"/><path stroke="#fbfffe" stroke-width="1.0" stroke-linejoin="round" stroke-linecap="butt" d="m424.9136 251.63737l36.723602 0l0 36.723587l-36.723602 0z" fill-rule="evenodd"/><path fill="#ffffff" d="m461.6372 251.63737l36.72357 0l0 36.723587l-36.72357 0z" fill-rule="evenodd"/><path stroke="#ffffff" stroke-width="1.0" stroke-linejoin="round" stroke-linecap="butt" d="m461.6372 251.63737l36.72357 0l0 36.723587l-36.72357 0z" fill-rule="evenodd"/><path fill="#fbfffe" d="m498.36078 251.63737l36.72357 0l0 36.723587l-36.72357 0z" fill-rule="evenodd"/><path stroke="#fbfffe" stroke-width="1.0" stroke-linejoin="round" stroke-linecap="butt" d="m498.36078 251.63737l36.72357 0l0 36.723587l-36.72357 0z" fill-rule="evenodd"/><path fill="#e1f1ff" d="m535.08435 251.63737l36.723633 0l0 36.723587l-36.723633 0z" fill-rule="evenodd"/><path stroke="#e1f1ff" stroke-width="1.0" stroke-linejoin="round" stroke-linecap="butt" d="m535.08435 251.63737l36.723633 0l0 36.723587l-36.723633 0z" fill-rule="evenodd"/><path fill="#fdedff" d="m571.808 251.63737l36.72357 0l0 36.723587l-36.72357 0z" fill-rule="evenodd"/><path stroke="#fce9ff" stroke-width="1.0" stroke-linejoin="round" stroke-linecap="butt" d="m571.808 251.63737l36.72357 0l0 36.723587l-36.72357 0z" fill-rule="evenodd"/><path fill="#b4a7d6" d="m608.53156 251.63737l36.72357 0l0 36.723587l-36.72357 0z" fill-rule="evenodd"/><path stroke="#b4a7d6" stroke-width="1.0" stroke-linejoin="round" stroke-linecap="butt" d="m608.53156 251.63737l36.72357 0l0 36.723587l-36.72357 0z" fill-rule="evenodd"/><path fill="#84a1ba" d="m645.2551 251.63737l36.723633 0l0 36.723587l-36.723633 0z" fill-rule="evenodd"/><path stroke="#84a1ba" stroke-width="1.0" stroke-linejoin="round" stroke-linecap="butt" d="m645.2551 251.63737l36.723633 0l0 36.723587l-36.723633 0z" fill-rule="evenodd"/><path fill="#9278ab" d="m241.29565 288.36096l36.723602 0l0 36.723602l-36.723602 0z" fill-rule="evenodd"/><path stroke="#9278ab" stroke-width="1.0" stroke-linejoin="round" stroke-linecap="butt" d="m241.29565 288.36096l36.723602 0l0 36.723602l-36.723602 0z" fill-rule="evenodd"/><path fill="#84a1ba" d="m278.01926 288.36096l36.72357 0l0 36.723602l-36.72357 0z" fill-rule="evenodd"/><path stroke="#84a1ba" stroke-width="1.0" stroke-linejoin="round" stroke-linecap="butt" d="m278.01926 288.36096l36.72357 0l0 36.723602l-36.72357 0z" fill-rule="evenodd"/><path fill="#b4a7d6" d="m314.74283 288.36096l36.723602 0l0 36.723602l-36.723602 0z" fill-rule="evenodd"/><path stroke="#b4a7d6" stroke-width="1.0" stroke-linejoin="round" stroke-linecap="butt" d="m314.74283 288.36096l36.723602 0l0 36.723602l-36.723602 0z" fill-rule="evenodd"/><path fill="#fce9ff" d="m351.46643 288.36096l36.72357 0l0 36.723602l-36.72357 0z" fill-rule="evenodd"/><path stroke="#fce9ff" stroke-width="1.0" stroke-linejoin="round" stroke-linecap="butt" d="m351.46643 288.36096l36.72357 0l0 36.723602l-36.72357 0z" fill-rule="evenodd"/><path fill="#cfe2f3" d="m388.19 288.36096l36.723602 0l0 36.723602l-36.723602 0z" fill-rule="evenodd"/><path stroke="#cfe2f3" stroke-width="1.0" stroke-linejoin="round" stroke-linecap="butt" d="m388.19 288.36096l36.723602 0l0 36.723602l-36.723602 0z" fill-rule="evenodd"/><path fill="#f0fefc" d="m424.9136 288.36096l36.723602 0l0 36.723602l-36.723602 0z" fill-rule="evenodd"/><path stroke="#f0fefc" stroke-width="1.0" stroke-linejoin="round" stroke-linecap="butt" d="m424.9136 288.36096l36.723602 0l0 36.723602l-36.723602 0z" fill-rule="evenodd"/><path fill="#fbfffe" d="m461.6372 288.36096l36.72357 0l0 36.723602l-36.72357 0z" fill-rule="evenodd"/><path stroke="#fbfffe" stroke-width="1.0" stroke-linejoin="round" stroke-linecap="butt" d="m461.6372 288.36096l36.72357 0l0 36.723602l-36.72357 0z" fill-rule="evenodd"/><path fill="#f0fefc" d="m498.36078 288.36096l36.72357 0l0 36.723602l-36.72357 0z" fill-rule="evenodd"/><path stroke="#f0fefc" stroke-width="1.0" stroke-linejoin="round" stroke-linecap="butt" d="m498.36078 288.36096l36.72357 0l0 36.723602l-36.72357 0z" fill-rule="evenodd"/><path fill="#cfe2f3" d="m535.08435 288.36096l36.723633 0l0 36.723602l-36.723633 0z" fill-rule="evenodd"/><path stroke="#cfe2f3" stroke-width="1.0" stroke-linejoin="round" stroke-linecap="butt" d="m535.08435 288.36096l36.723633 0l0 36.723602l-36.723633 0z" fill-rule="evenodd"/><path fill="#fce9ff" d="m571.808 288.36096l36.72357 0l0 36.723602l-36.72357 0z" fill-rule="evenodd"/><path stroke="#fce9ff" stroke-width="1.0" stroke-linejoin="round" stroke-linecap="butt" d="m571.808 288.36096l36.72357 0l0 36.723602l-36.72357 0z" fill-rule="evenodd"/><path fill="#b4a7d6" d="m608.53156 288.36096l36.72357 0l0 36.723602l-36.72357 0z" fill-rule="evenodd"/><path stroke="#b4a7d6" stroke-width="1.0" stroke-linejoin="round" stroke-linecap="butt" d="m608.53156 288.36096l36.72357 0l0 36.723602l-36.72357 0z" fill-rule="evenodd"/><path fill="#84a1ba" d="m645.2551 288.36096l36.723633 0l0 36.723602l-36.723633 0z" fill-rule="evenodd"/><path stroke="#84a1ba" stroke-width="1.0" stroke-linejoin="round" stroke-linecap="butt" d="m645.2551 288.36096l36.723633 0l0 36.723602l-36.723633 0z" fill-rule="evenodd"/><path fill="#9278ab" d="m241.29565 325.08456l36.723602 0l0 36.72357l-36.723602 0z" fill-rule="evenodd"/><path stroke="#9278ab" stroke-width="1.0" stroke-linejoin="round" stroke-linecap="butt" d="m241.29565 325.08456l36.723602 0l0 36.72357l-36.723602 0z" fill-rule="evenodd"/><path fill="#84a1ba" d="m278.01926 325.08456l36.72357 0l0 36.72357l-36.72357 0z" fill-rule="evenodd"/><path stroke="#84a1ba" stroke-width="1.0" stroke-linejoin="round" stroke-linecap="butt" d="m278.01926 325.08456l36.72357 0l0 36.72357l-36.72357 0z" fill-rule="evenodd"/><path fill="#84a1ba" d="m314.74283 325.08456l36.723602 0l0 36.72357l-36.723602 0z" fill-rule="evenodd"/><path stroke="#84a1ba" stroke-width="1.0" stroke-linejoin="round" stroke-linecap="butt" d="m314.74283 325.08456l36.723602 0l0 36.72357l-36.723602 0z" fill-rule="evenodd"/><path fill="#b4a7d6" d="m351.46643 325.08456l36.72357 0l0 36.72357l-36.72357 0z" fill-rule="evenodd"/><path stroke="#b4a7d6" stroke-width="1.0" stroke-linejoin="round" stroke-linecap="butt" d="m351.46643 325.08456l36.72357 0l0 36.72357l-36.72357 0z" fill-rule="evenodd"/><path fill="#fce9ff" d="m388.19 325.08456l36.723602 0l0 36.72357l-36.723602 0z" fill-rule="evenodd"/><path stroke="#fce9ff" stroke-width="1.0" stroke-linejoin="round" stroke-linecap="butt" d="m388.19 325.08456l36.723602 0l0 36.72357l-36.723602 0z" fill-rule="evenodd"/><path fill="#cfe2f3" d="m424.9136 325.08456l36.723602 0l0 36.72357l-36.723602 0z" fill-rule="evenodd"/><path stroke="#cfe2f3" stroke-width="1.0" stroke-linejoin="round" stroke-linecap="butt" d="m424.9136 325.08456l36.723602 0l0 36.72357l-36.723602 0z" fill-rule="evenodd"/><path fill="#e1f1ff" d="m461.6372 325.08456l36.72357 0l0 36.72357l-36.72357 0z" fill-rule="evenodd"/><path stroke="#e1f1ff" stroke-width="1.0" stroke-linejoin="round" stroke-linecap="butt" d="m461.6372 325.08456l36.72357 0l0 36.72357l-36.72357 0z" fill-rule="evenodd"/><path fill="#cfe2f3" d="m498.36078 325.08456l36.72357 0l0 36.72357l-36.72357 0z" fill-rule="evenodd"/><path stroke="#cfe2f3" stroke-width="1.0" stroke-linejoin="round" stroke-linecap="butt" d="m498.36078 325.08456l36.72357 0l0 36.72357l-36.72357 0z" fill-rule="evenodd"/><path fill="#fce9ff" d="m535.08435 325.08456l36.723633 0l0 36.72357l-36.723633 0z" fill-rule="evenodd"/><path stroke="#fce9ff" stroke-width="1.0" stroke-linejoin="round" stroke-linecap="butt" d="m535.08435 325.08456l36.723633 0l0 36.72357l-36.723633 0z" fill-rule="evenodd"/><path fill="#b4a7d6" d="m571.808 325.08456l36.72357 0l0 36.72357l-36.72357 0z" fill-rule="evenodd"/><path stroke="#b4a7d6" stroke-width="1.0" stroke-linejoin="round" stroke-linecap="butt" d="m571.808 325.08456l36.72357 0l0 36.72357l-36.72357 0z" fill-rule="evenodd"/><path fill="#84a1ba" d="m608.53156 325.08456l36.72357 0l0 36.72357l-36.72357 0z" fill-rule="evenodd"/><path stroke="#84a1ba" stroke-width="1.0" stroke-linejoin="round" stroke-linecap="butt" d="m608.53156 325.08456l36.72357 0l0 36.72357l-36.72357 0z" fill-rule="evenodd"/><path fill="#84a1ba" d="m645.2551 325.08456l36.723633 0l0 36.72357l-36.723633 0z" fill-rule="evenodd"/><path stroke="#84a1ba" stroke-width="1.0" stroke-linejoin="round" stroke-linecap="butt" d="m645.2551 325.08456l36.723633 0l0 36.72357l-36.723633 0z" fill-rule="evenodd"/><path fill="#999999" d="m241.29565 361.80814l36.723602 0l0 36.723602l-36.723602 0z" fill-rule="evenodd"/><path stroke="#999999" stroke-width="1.0" stroke-linejoin="round" stroke-linecap="butt" d="m241.29565 361.80814l36.723602 0l0 36.723602l-36.723602 0z" fill-rule="evenodd"/><path fill="#9278ab" d="m278.01926 361.80814l36.72357 0l0 36.723602l-36.72357 0z" fill-rule="evenodd"/><path stroke="#9278ab" stroke-width="1.0" stroke-linejoin="round" stroke-linecap="butt" d="m278.01926 361.80814l36.72357 0l0 36.723602l-36.72357 0z" fill-rule="evenodd"/><path fill="#84a1ba" d="m314.74283 361.80814l36.723602 0l0 36.723602l-36.723602 0z" fill-rule="evenodd"/><path stroke="#84a1ba" stroke-width="1.0" stroke-linejoin="round" stroke-linecap="butt" d="m314.74283 361.80814l36.723602 0l0 36.723602l-36.723602 0z" fill-rule="evenodd"/><path fill="#b997d9" d="m351.46643 361.80814l36.72357 0l0 36.723602l-36.72357 0z" fill-rule="evenodd"/><path stroke="#b997d9" stroke-width="1.0" stroke-linejoin="round" stroke-linecap="butt" d="m351.46643 361.80814l36.72357 0l0 36.723602l-36.72357 0z" fill-rule="evenodd"/><path fill="#b4a7d6" d="m388.19 361.80814l36.723602 0l0 36.723602l-36.723602 0z" fill-rule="evenodd"/><path stroke="#b4a7d6" stroke-width="1.0" stroke-linejoin="round" stroke-linecap="butt" d="m388.19 361.80814l36.723602 0l0 36.723602l-36.723602 0z" fill-rule="evenodd"/><path fill="#fce9ff" d="m424.9136 361.80814l36.723602 0l0 36.723602l-36.723602 0z" fill-rule="evenodd"/><path stroke="#fce9ff" stroke-width="1.0" stroke-linejoin="round" stroke-linecap="butt" d="m424.9136 361.80814l36.723602 0l0 36.723602l-36.723602 0z" fill-rule="evenodd"/><path fill="#fdedff" d="m461.6372 361.80814l36.72357 0l0 36.723602l-36.72357 0z" fill-rule="evenodd"/><path stroke="#fce9ff" stroke-width="1.0" stroke-linejoin="round" stroke-linecap="butt" d="m461.6372 361.80814l36.72357 0l0 36.723602l-36.72357 0z" fill-rule="evenodd"/><path fill="#fce9ff" d="m498.36078 361.80814l36.72357 0l0 36.723602l-36.72357 0z" fill-rule="evenodd"/><path stroke="#fce9ff" stroke-width="1.0" stroke-linejoin="round" stroke-linecap="butt" d="m498.36078 361.80814l36.72357 0l0 36.723602l-36.72357 0z" fill-rule="evenodd"/><path fill="#b4a7d6" d="m535.08435 361.80814l36.723633 0l0 36.723602l-36.723633 0z" fill-rule="evenodd"/><path stroke="#b4a7d6" stroke-width="1.0" stroke-linejoin="round" stroke-linecap="butt" d="m535.08435 361.80814l36.723633 0l0 36.723602l-36.723633 0z" fill-rule="evenodd"/><path fill="#b997d9" d="m571.808 361.80814l36.72357 0l0 36.723602l-36.72357 0z" fill-rule="evenodd"/><path stroke="#b4a7d6" stroke-width="1.0" stroke-linejoin="round" stroke-linecap="butt" d="m571.808 361.80814l36.72357 0l0 36.723602l-36.72357 0z" fill-rule="evenodd"/><path fill="#84a1ba" d="m608.53156 361.80814l36.72357 0l0 36.723602l-36.72357 0z" fill-rule="evenodd"/><path stroke="#84a1ba" stroke-width="1.0" stroke-linejoin="round" stroke-linecap="butt" d="m608.53156 361.80814l36.72357 0l0 36.723602l-36.72357 0z" fill-rule="evenodd"/><path fill="#9278ab" d="m645.2551 361.80814l36.723633 0l0 36.723602l-36.723633 0z" fill-rule="evenodd"/><path stroke="#9278ab" stroke-width="1.0" stroke-linejoin="round" stroke-linecap="butt" d="m645.2551 361.80814l36.723633 0l0 36.723602l-36.723633 0z" fill-rule="evenodd"/><path fill="#999999" d="m241.29565 398.53174l36.723602 0l0 36.723602l-36.723602 0z" fill-rule="evenodd"/><path stroke="#999999" stroke-width="1.0" stroke-linejoin="round" stroke-linecap="butt" d="m241.29565 398.53174l36.723602 0l0 36.723602l-36.723602 0z" fill-rule="evenodd"/><path fill="#9278ab" d="m278.01926 398.53174l36.72357 0l0 36.723602l-36.72357 0z" fill-rule="evenodd"/><path stroke="#9278ab" stroke-width="1.0" stroke-linejoin="round" stroke-linecap="butt" d="m278.01926 398.53174l36.72357 0l0 36.723602l-36.72357 0z" fill-rule="evenodd"/><path fill="#9278ab" d="m314.74283 398.53174l36.723602 0l0 36.723602l-36.723602 0z" fill-rule="evenodd"/><path stroke="#9278ab" stroke-width="1.0" stroke-linejoin="round" stroke-linecap="butt" d="m314.74283 398.53174l36.723602 0l0 36.723602l-36.723602 0z" fill-rule="evenodd"/><path fill="#84a1ba" d="m351.46643 398.53174l36.72357 0l0 36.723602l-36.72357 0z" fill-rule="evenodd"/><path stroke="#84a1ba" stroke-width="1.0" stroke-linejoin="round" stroke-linecap="butt" d="m351.46643 398.53174l36.72357 0l0 36.723602l-36.72357 0z" fill-rule="evenodd"/><path fill="#84a1ba" d="m388.19 398.53174l36.723602 0l0 36.723602l-36.723602 0z" fill-rule="evenodd"/><path stroke="#84a1ba" stroke-width="1.0" stroke-linejoin="round" stroke-linecap="butt" d="m388.19 398.53174l36.723602 0l0 36.723602l-36.723602 0z" fill-rule="evenodd"/><path fill="#b4a7d6" d="m424.9136 398.53174l36.723602 0l0 36.723602l-36.723602 0z" fill-rule="evenodd"/><path stroke="#b4a7d6" stroke-width="1.0" stroke-linejoin="round" stroke-linecap="butt" d="m424.9136 398.53174l36.723602 0l0 36.723602l-36.723602 0z" fill-rule="evenodd"/><path fill="#b4a7d6" d="m461.6372 398.53174l36.72357 0l0 36.723602l-36.72357 0z" fill-rule="evenodd"/><path stroke="#b4a7d6" stroke-width="1.0" stroke-linejoin="round" stroke-linecap="butt" d="m461.6372 398.53174l36.72357 0l0 36.723602l-36.72357 0z" fill-rule="evenodd"/><path fill="#b4a7d6" d="m498.36078 398.53174l36.72357 0l0 36.723602l-36.72357 0z" fill-rule="evenodd"/><path stroke="#b4a7d6" stroke-width="1.0" stroke-linejoin="round" stroke-linecap="butt" d="m498.36078 398.53174l36.72357 0l0 36.723602l-36.72357 0z" fill-rule="evenodd"/><path fill="#84a1ba" d="m535.08435 398.53174l36.723633 0l0 36.723602l-36.723633 0z" fill-rule="evenodd"/><path stroke="#84a1ba" stroke-width="1.0" stroke-linejoin="round" stroke-linecap="butt" d="m535.08435 398.53174l36.723633 0l0 36.723602l-36.723633 0z" fill-rule="evenodd"/><path fill="#84a1ba" d="m571.808 398.53174l36.72357 0l0 36.723602l-36.72357 0z" fill-rule="evenodd"/><path stroke="#84a1ba" stroke-width="1.0" stroke-linejoin="round" stroke-linecap="butt" d="m571.808 398.53174l36.72357 0l0 36.723602l-36.72357 0z" fill-rule="evenodd"/><path fill="#9278ab" d="m608.53156 398.53174l36.72357 0l0 36.723602l-36.72357 0z" fill-rule="evenodd"/><path stroke="#9278ab" stroke-width="1.0" stroke-linejoin="round" stroke-linecap="butt" d="m608.53156 398.53174l36.72357 0l0 36.723602l-36.72357 0z" fill-rule="evenodd"/><path fill="#9278ab" d="m645.2551 398.53174l36.723633 0l0 36.723602l-36.723633 0z" fill-rule="evenodd"/><path stroke="#9278ab" stroke-width="1.0" stroke-linejoin="round" stroke-linecap="butt" d="m645.2551 398.53174l36.723633 0l0 36.723602l-36.723633 0z" fill-rule="evenodd"/><path fill="#434343" d="m241.29565 435.25534l36.723602 0l0 36.72357l-36.723602 0z" fill-rule="evenodd"/><path stroke="#434343" stroke-width="1.0" stroke-linejoin="round" stroke-linecap="butt" d="m241.29565 435.25534l36.723602 0l0 36.72357l-36.723602 0z" fill-rule="evenodd"/><path fill="#999999" d="m278.01926 435.25534l36.72357 0l0 36.72357l-36.72357 0z" fill-rule="evenodd"/><path stroke="#999999" stroke-width="1.0" stroke-linejoin="round" stroke-linecap="butt" d="m278.01926 435.25534l36.72357 0l0 36.72357l-36.72357 0z" fill-rule="evenodd"/><path fill="#9278ab" d="m314.74283 435.25534l36.723602 0l0 36.72357l-36.723602 0z" fill-rule="evenodd"/><path stroke="#9278ab" stroke-width="1.0" stroke-linejoin="round" stroke-linecap="butt" d="m314.74283 435.25534l36.723602 0l0 36.72357l-36.723602 0z" fill-rule="evenodd"/><path fill="#9278ab" d="m351.46643 435.25534l36.72357 0l0 36.72357l-36.72357 0z" fill-rule="evenodd"/><path stroke="#9278ab" stroke-width="1.0" stroke-linejoin="round" stroke-linecap="butt" d="m351.46643 435.25534l36.72357 0l0 36.72357l-36.72357 0z" fill-rule="evenodd"/><path fill="#84a1ba" d="m388.19 435.25534l36.723602 0l0 36.72357l-36.723602 0z" fill-rule="evenodd"/><path stroke="#84a1ba" stroke-width="1.0" stroke-linejoin="round" stroke-linecap="butt" d="m388.19 435.25534l36.723602 0l0 36.72357l-36.723602 0z" fill-rule="evenodd"/><path fill="#84a1ba" d="m424.9136 435.25534l36.723602 0l0 36.72357l-36.723602 0z" fill-rule="evenodd"/><path stroke="#84a1ba" stroke-width="1.0" stroke-linejoin="round" stroke-linecap="butt" d="m424.9136 435.25534l36.723602 0l0 36.72357l-36.723602 0z" fill-rule="evenodd"/><path fill="#84a1ba" d="m461.6372 435.25534l36.72357 0l0 36.72357l-36.72357 0z" fill-rule="evenodd"/><path stroke="#84a1ba" stroke-width="1.0" stroke-linejoin="round" stroke-linecap="butt" d="m461.6372 435.25534l36.72357 0l0 36.72357l-36.72357 0z" fill-rule="evenodd"/><path fill="#84a1ba" d="m498.36078 435.25534l36.72357 0l0 36.72357l-36.72357 0z" fill-rule="evenodd"/><path stroke="#84a1ba" stroke-width="1.0" stroke-linejoin="round" stroke-linecap="butt" d="m498.36078 435.25534l36.72357 0l0 36.72357l-36.72357 0z" fill-rule="evenodd"/><path fill="#84a1ba" d="m535.08435 435.25534l36.723633 0l0 36.72357l-36.723633 0z" fill-rule="evenodd"/><path stroke="#84a1ba" stroke-width="1.0" stroke-linejoin="round" stroke-linecap="butt" d="m535.08435 435.25534l36.723633 0l0 36.72357l-36.723633 0z" fill-rule="evenodd"/><path fill="#9278ab" d="m571.808 435.25534l36.72357 0l0 36.72357l-36.72357 0z" fill-rule="evenodd"/><path stroke="#9278ab" stroke-width="1.0" stroke-linejoin="round" stroke-linecap="butt" d="m571.808 435.25534l36.72357 0l0 36.72357l-36.72357 0z" fill-rule="evenodd"/><path fill="#9278ab" d="m608.53156 435.25534l36.72357 0l0 36.72357l-36.72357 0z" fill-rule="evenodd"/><path stroke="#9278ab" stroke-width="1.0" stroke-linejoin="round" stroke-linecap="butt" d="m608.53156 435.25534l36.72357 0l0 36.72357l-36.72357 0z" fill-rule="evenodd"/><path fill="#999999" d="m645.2551 435.25534l36.723633 0l0 36.72357l-36.723633 0z" fill-rule="evenodd"/><path stroke="#999999" stroke-width="1.0" stroke-linejoin="round" stroke-linecap="butt" d="m645.2551 435.25534l36.723633 0l0 36.72357l-36.723633 0z" fill-rule="evenodd"/><path fill="#434343" d="m681.97876 31.29583l36.72357 0l0 36.723587l-36.72357 0z" fill-rule="evenodd"/><path stroke="#434343" stroke-width="1.0" stroke-linejoin="round" stroke-linecap="butt" d="m681.97876 31.29583l36.72357 0l0 36.723587l-36.72357 0z" fill-rule="evenodd"/><path fill="#434343" d="m681.97876 68.01942l36.72357 0l0 36.723595l-36.72357 0z" fill-rule="evenodd"/><path stroke="#434343" stroke-width="1.0" stroke-linejoin="round" stroke-linecap="butt" d="m681.97876 68.01942l36.72357 0l0 36.723595l-36.72357 0z" fill-rule="evenodd"/><path fill="#999999" d="m681.97876 104.74301l36.72357 0l0 36.723587l-36.72357 0z" fill-rule="evenodd"/><path stroke="#999999" stroke-width="1.0" stroke-linejoin="round" stroke-linecap="butt" d="m681.97876 104.74301l36.72357 0l0 36.723587l-36.72357 0z" fill-rule="evenodd"/><path fill="#999999" d="m681.97876 141.4666l36.72357 0l0 36.723587l-36.72357 0z" fill-rule="evenodd"/><path stroke="#999999" stroke-width="1.0" stroke-linejoin="round" stroke-linecap="butt" d="m681.97876 141.4666l36.72357 0l0 36.723587l-36.72357 0z" fill-rule="evenodd"/><path fill="#9278ab" d="m681.97876 178.19019l36.72357 0l0 36.723602l-36.72357 0z" fill-rule="evenodd"/><path stroke="#9278ab" stroke-width="1.0" stroke-linejoin="round" stroke-linecap="butt" d="m681.97876 178.19019l36.72357 0l0 36.723602l-36.72357 0z" fill-rule="evenodd"/><path fill="#9278ab" d="m681.97876 214.91379l36.72357 0l0 36.723587l-36.72357 0z" fill-rule="evenodd"/><path stroke="#9278ab" stroke-width="1.0" stroke-linejoin="round" stroke-linecap="butt" d="m681.97876 214.91379l36.72357 0l0 36.723587l-36.72357 0z" fill-rule="evenodd"/><path fill="#9278ab" d="m681.97876 251.63737l36.72357 0l0 36.723587l-36.72357 0z" fill-rule="evenodd"/><path stroke="#9278ab" stroke-width="1.0" stroke-linejoin="round" stroke-linecap="butt" d="m681.97876 251.63737l36.72357 0l0 36.723587l-36.72357 0z" fill-rule="evenodd"/><path fill="#9278ab" d="m681.97876 288.36096l36.72357 0l0 36.723602l-36.72357 0z" fill-rule="evenodd"/><path stroke="#9278ab" stroke-width="1.0" stroke-linejoin="round" stroke-linecap="butt" d="m681.97876 288.36096l36.72357 0l0 36.723602l-36.72357 0z" fill-rule="evenodd"/><path fill="#9278ab" d="m681.97876 325.08456l36.72357 0l0 36.72357l-36.72357 0z" fill-rule="evenodd"/><path stroke="#9278ab" stroke-width="1.0" stroke-linejoin="round" stroke-linecap="butt" d="m681.97876 325.08456l36.72357 0l0 36.72357l-36.72357 0z" fill-rule="evenodd"/><path fill="#999999" d="m681.97876 361.80814l36.72357 0l0 36.723602l-36.72357 0z" fill-rule="evenodd"/><path stroke="#999999" stroke-width="1.0" stroke-linejoin="round" stroke-linecap="butt" d="m681.97876 361.80814l36.72357 0l0 36.723602l-36.72357 0z" fill-rule="evenodd"/><path fill="#999999" d="m681.97876 398.53174l36.72357 0l0 36.723602l-36.72357 0z" fill-rule="evenodd"/><path stroke="#999999" stroke-width="1.0" stroke-linejoin="round" stroke-linecap="butt" d="m681.97876 398.53174l36.72357 0l0 36.723602l-36.72357 0z" fill-rule="evenodd"/><path fill="#434343" d="m681.97876 435.25534l36.72357 0l0 36.72357l-36.72357 0z" fill-rule="evenodd"/><path stroke="#434343" stroke-width="1.0" stroke-linejoin="round" stroke-linecap="butt" d="m681.97876 435.25534l36.72357 0l0 36.72357l-36.72357 0z" fill-rule="evenodd"/><path fill="#434343" d="m241.29565 471.9789l36.723602 0l0 36.723602l-36.723602 0z" fill-rule="evenodd"/><path stroke="#434343" stroke-width="1.0" stroke-linejoin="round" stroke-linecap="butt" d="m241.29565 471.9789l36.723602 0l0 36.723602l-36.723602 0z" fill-rule="evenodd"/><path fill="#434343" d="m278.01926 471.9789l36.72357 0l0 36.723602l-36.72357 0z" fill-rule="evenodd"/><path stroke="#434343" stroke-width="1.0" stroke-linejoin="round" stroke-linecap="butt" d="m278.01926 471.9789l36.72357 0l0 36.723602l-36.72357 0z" fill-rule="evenodd"/><path fill="#999999" d="m314.74283 471.9789l36.723602 0l0 36.723602l-36.723602 0z" fill-rule="evenodd"/><path stroke="#999999" stroke-width="1.0" stroke-linejoin="round" stroke-linecap="butt" d="m314.74283 471.9789l36.723602 0l0 36.723602l-36.723602 0z" fill-rule="evenodd"/><path fill="#999999" d="m351.46643 471.9789l36.72357 0l0 36.723602l-36.72357 0z" fill-rule="evenodd"/><path stroke="#999999" stroke-width="1.0" stroke-linejoin="round" stroke-linecap="butt" d="m351.46643 471.9789l36.72357 0l0 36.723602l-36.72357 0z" fill-rule="evenodd"/><path fill="#9278ab" d="m388.19 471.9789l36.723602 0l0 36.723602l-36.723602 0z" fill-rule="evenodd"/><path stroke="#9278ab" stroke-width="1.0" stroke-linejoin="round" stroke-linecap="butt" d="m388.19 471.9789l36.723602 0l0 36.723602l-36.723602 0z" fill-rule="evenodd"/><path fill="#9278ab" d="m424.9136 471.9789l36.723602 0l0 36.723602l-36.723602 0z" fill-rule="evenodd"/><path stroke="#9278ab" stroke-width="1.0" stroke-linejoin="round" stroke-linecap="butt" d="m424.9136 471.9789l36.723602 0l0 36.723602l-36.723602 0z" fill-rule="evenodd"/><path fill="#9278ab" d="m461.6372 471.9789l36.72357 0l0 36.723602l-36.72357 0z" fill-rule="evenodd"/><path stroke="#9278ab" stroke-width="1.0" stroke-linejoin="round" stroke-linecap="butt" d="m461.6372 471.9789l36.72357 0l0 36.723602l-36.72357 0z" fill-rule="evenodd"/><path fill="#9278ab" d="m498.36078 471.9789l36.72357 0l0 36.723602l-36.72357 0z" fill-rule="evenodd"/><path stroke="#9278ab" stroke-width="1.0" stroke-linejoin="round" stroke-linecap="butt" d="m498.36078 471.9789l36.72357 0l0 36.723602l-36.72357 0z" fill-rule="evenodd"/><path fill="#9278ab" d="m535.08435 471.9789l36.723633 0l0 36.723602l-36.723633 0z" fill-rule="evenodd"/><path stroke="#9278ab" stroke-width="1.0" stroke-linejoin="round" stroke-linecap="butt" d="m535.08435 471.9789l36.723633 0l0 36.723602l-36.723633 0z" fill-rule="evenodd"/><path fill="#999999" d="m571.808 471.9789l36.72357 0l0 36.723602l-36.72357 0z" fill-rule="evenodd"/><path stroke="#999999" stroke-width="1.0" stroke-linejoin="round" stroke-linecap="butt" d="m571.808 471.9789l36.72357 0l0 36.723602l-36.72357 0z" fill-rule="evenodd"/><path fill="#999999" d="m608.53156 471.9789l36.72357 0l0 36.723602l-36.72357 0z" fill-rule="evenodd"/><path stroke="#999999" stroke-width="1.0" stroke-linejoin="round" stroke-linecap="butt" d="m608.53156 471.9789l36.72357 0l0 36.723602l-36.72357 0z" fill-rule="evenodd"/><path fill="#434343" d="m645.2551 471.9789l36.723633 0l0 36.723602l-36.723633 0z" fill-rule="evenodd"/><path stroke="#434343" stroke-width="1.0" stroke-linejoin="round" stroke-linecap="butt" d="m645.2551 471.9789l36.723633 0l0 36.723602l-36.723633 0z" fill-rule="evenodd"/><path fill="#434343" d="m681.97876 471.9789l36.72357 0l0 36.723602l-36.72357 0z" fill-rule="evenodd"/><path stroke="#434343" stroke-width="1.0" stroke-linejoin="round" stroke-linecap="butt" d="m681.97876 471.9789l36.72357 0l0 36.723602l-36.72357 0z" fill-rule="evenodd"/></g></svg>